<svg xmlns="http://www.w3.org/2000/svg" xmlns:xlink="http://www.w3.org/1999/xlink" width="500" zoomAndPan="magnify" viewBox="0 0 375 374.999991" height="500" preserveAspectRatio="xMidYMid meet" version="1.0"><defs><g/></defs><g fill="#ffbd59" fill-opacity="1"><g transform="translate(145.966387, 161.249989)"><g><path d="M 6.65625 -0.5625 L 8.9375 -1.140625 L 8.9375 -25.65625 L 4.5625 -25.65625 C 4.5625 -24.113281 4.144531 -22.632812 3.3125 -21.21875 C 2.957031 -20.632812 2.550781 -20.148438 2.09375 -19.765625 L 0.953125 -19.765625 L 0.953125 -26.609375 L 23.1875 -26.609375 L 23.1875 -19.765625 L 22.046875 -19.765625 C 21.566406 -20.148438 21.148438 -20.632812 20.796875 -21.21875 C 19.984375 -22.582031 19.578125 -24.0625 19.578125 -25.65625 L 15.203125 -25.65625 L 15.203125 -1.140625 L 17.484375 -0.5625 L 17.484375 0 L 6.65625 0 Z M 6.65625 -0.5625 "/></g></g></g><g fill="#2d1902" fill-opacity="1"><g transform="translate(170.095292, 161.249989)"><g><path d="M 1.90625 0 L 1.90625 -0.5625 L 4.1875 -1.140625 L 4.1875 -25.46875 L 1.90625 -26.046875 L 1.90625 -26.609375 L 12.734375 -26.609375 L 12.734375 -26.046875 L 10.453125 -25.46875 L 10.453125 -13.6875 L 18.625 -13.6875 L 18.625 -25.46875 L 16.34375 -26.046875 L 16.34375 -26.609375 L 27.1875 -26.609375 L 27.1875 -26.046875 L 24.90625 -25.46875 L 24.90625 -1.140625 L 27.1875 -0.5625 L 27.1875 0 L 16.34375 0 L 16.34375 -0.5625 L 18.625 -1.140625 L 18.625 -12.734375 L 10.453125 -12.734375 L 10.453125 -1.140625 L 12.734375 -0.5625 L 12.734375 0 Z M 1.90625 0 "/></g></g></g><g fill="#2d1902" fill-opacity="1"><g transform="translate(199.16825, 161.249989)"><g><path d="M 1.90625 -0.5625 L 4.1875 -1.140625 L 4.1875 -25.46875 L 1.90625 -26.046875 L 1.90625 -26.609375 L 22.234375 -26.609375 L 22.234375 -19.765625 L 21.09375 -19.765625 C 20.613281 -20.148438 20.195312 -20.632812 19.84375 -21.21875 C 19.03125 -22.582031 18.625 -24.0625 18.625 -25.65625 L 10.453125 -25.65625 L 10.453125 -13.6875 L 14.828125 -13.6875 C 15.003906 -14.644531 15.332031 -15.546875 15.8125 -16.390625 C 16.019531 -16.765625 16.257812 -17.128906 16.53125 -17.484375 L 17.671875 -17.484375 L 17.671875 -8.9375 L 16.53125 -8.9375 C 16.257812 -9.289062 16.019531 -9.65625 15.8125 -10.03125 C 15.332031 -10.875 15.003906 -11.773438 14.828125 -12.734375 L 10.453125 -12.734375 L 10.453125 -0.953125 L 19.390625 -0.953125 C 19.390625 -2.546875 19.796875 -4.023438 20.609375 -5.390625 C 20.960938 -5.972656 21.378906 -6.457031 21.859375 -6.84375 L 23 -6.84375 L 23 0 L 1.90625 0 Z M 1.90625 -0.5625 "/></g></g></g><g fill="#ffbd59" fill-opacity="1"><g transform="translate(145.966387, 200.249987)"><g><path d="M -0.765625 -0.5625 L 2.28125 -1.703125 L 12.734375 -26.984375 L 13.875 -26.984375 L 24.703125 -1.140625 L 26.609375 -0.5625 L 26.609375 0 L 22.046875 0 C 20.734375 0 19.65625 -0.296875 18.8125 -0.890625 C 17.976562 -1.484375 17.359375 -2.265625 16.953125 -3.234375 L 15.015625 -7.796875 L 5.9375 -7.796875 L 3.421875 -1.703125 L 6.265625 -0.5625 L 6.265625 0 L -0.765625 0 Z M 6.3125 -8.75 L 14.640625 -8.75 L 10.453125 -18.734375 Z M 6.3125 -8.75 "/></g></g></g><g fill="#2d1902" fill-opacity="1"><g transform="translate(171.806229, 200.249987)"><g><path d="M 1.90625 -0.5625 L 4.1875 -1.140625 L 4.1875 -25.46875 L 1.90625 -26.046875 L 1.90625 -26.609375 L 22.234375 -26.609375 L 22.234375 -19.765625 L 21.09375 -19.765625 C 20.613281 -20.148438 20.195312 -20.632812 19.84375 -21.21875 C 19.03125 -22.582031 18.625 -24.0625 18.625 -25.65625 L 10.453125 -25.65625 L 10.453125 -13.6875 L 14.828125 -13.6875 C 15.003906 -14.644531 15.332031 -15.546875 15.8125 -16.390625 C 16.019531 -16.765625 16.257812 -17.128906 16.53125 -17.484375 L 17.671875 -17.484375 L 17.671875 -8.9375 L 16.53125 -8.9375 C 16.257812 -9.289062 16.019531 -9.65625 15.8125 -10.03125 C 15.332031 -10.875 15.003906 -11.773438 14.828125 -12.734375 L 10.453125 -12.734375 L 10.453125 -1.140625 L 12.734375 -0.5625 L 12.734375 0 L 1.90625 0 Z M 1.90625 -0.5625 "/></g></g></g><g fill="#2d1902" fill-opacity="1"><g transform="translate(194.988581, 200.249987)"><g><path d="M 1.90625 -0.5625 L 4.1875 -1.140625 L 4.1875 -25.46875 L 1.90625 -26.046875 L 1.90625 -26.609375 L 11.96875 -26.609375 C 16.28125 -26.609375 19.382812 -25.957031 21.28125 -24.65625 C 23.1875 -23.351562 24.140625 -21.535156 24.140625 -19.203125 C 24.140625 -17.628906 23.71875 -16.351562 22.875 -15.375 C 22.039062 -14.394531 20.96875 -13.664062 19.65625 -13.1875 C 18.257812 -12.65625 16.773438 -12.378906 15.203125 -12.359375 L 15.203125 -12.171875 C 16.140625 -12.117188 16.960938 -11.976562 17.671875 -11.75 C 19.453125 -11.1875 20.65625 -10.1875 21.28125 -8.75 L 24.703125 -1.140625 L 26.609375 -0.5625 L 26.609375 0 L 21.28125 0 C 19.207031 0 17.691406 -1.078125 16.734375 -3.234375 L 12.921875 -11.78125 L 10.453125 -11.78125 L 10.453125 -1.140625 L 13.109375 -0.5625 L 13.109375 0 L 1.90625 0 Z M 11.96875 -12.734375 C 13.75 -12.734375 15.144531 -13.289062 16.15625 -14.40625 C 17.164062 -15.519531 17.671875 -17.117188 17.671875 -19.203125 C 17.671875 -21.273438 17.164062 -22.867188 16.15625 -23.984375 C 15.144531 -25.097656 13.75 -25.65625 11.96875 -25.65625 L 10.453125 -25.65625 L 10.453125 -12.734375 Z M 11.96875 -12.734375 "/></g></g></g><g fill="#2d1902" fill-opacity="1"><g transform="translate(221.591286, 200.249987)"><g><path d="M 1.90625 0 L 1.90625 -0.5625 L 4.1875 -1.140625 L 4.1875 -25.46875 L 1.90625 -26.046875 L 1.90625 -26.609375 L 12.734375 -26.609375 L 12.734375 -26.046875 L 10.453125 -25.46875 L 10.453125 -1.140625 L 12.734375 -0.5625 L 12.734375 0 Z M 1.90625 0 "/></g></g></g><g fill="#2d1902" fill-opacity="1"><g transform="translate(236.222774, 200.249987)"><g><path d="M 14.640625 0.5625 C 10.578125 0.5625 7.40625 -0.640625 5.125 -3.046875 C 2.84375 -5.453125 1.703125 -8.875 1.703125 -13.3125 C 1.703125 -16.21875 2.203125 -18.71875 3.203125 -20.8125 C 4.210938 -22.90625 5.625 -24.488281 7.4375 -25.5625 C 9.25 -26.644531 11.34375 -27.1875 13.71875 -27.1875 C 15.164062 -27.1875 16.625 -26.765625 18.09375 -25.921875 C 18.65625 -25.617188 19.210938 -25.210938 19.765625 -24.703125 C 20.203125 -25.367188 20.644531 -25.890625 21.09375 -26.265625 C 21.550781 -26.597656 21.804688 -26.773438 21.859375 -26.796875 L 22.8125 -26.796875 L 22.8125 -19.578125 L 21.28125 -19.578125 C 20.957031 -20.796875 20.46875 -21.898438 19.8125 -22.890625 C 19.195312 -23.847656 18.4375 -24.644531 17.53125 -25.28125 C 16.632812 -25.914062 15.609375 -26.234375 14.453125 -26.234375 C 12.703125 -26.234375 11.25 -25.21875 10.09375 -23.1875 C 8.9375 -21.15625 8.359375 -17.863281 8.359375 -13.3125 C 8.359375 -8.664062 8.984375 -5.347656 10.234375 -3.359375 C 11.492188 -1.367188 13.210938 -0.375 15.390625 -0.375 C 16.585938 -0.375 17.722656 -0.707031 18.796875 -1.375 C 19.878906 -2.050781 20.753906 -2.945312 21.421875 -4.0625 C 22.085938 -5.175781 22.421875 -6.359375 22.421875 -7.609375 L 23.375 -7.609375 C 23.375 -6.160156 22.988281 -4.804688 22.21875 -3.546875 C 21.445312 -2.296875 20.394531 -1.296875 19.0625 -0.546875 C 17.726562 0.191406 16.253906 0.5625 14.640625 0.5625 Z M 14.640625 0.5625 "/></g></g></g><g fill="#2d1902" fill-opacity="1"><g transform="translate(260.92528, 200.249987)"><g><path d="M -0.765625 -0.5625 L 2.28125 -1.703125 L 12.734375 -26.984375 L 13.875 -26.984375 L 24.703125 -1.140625 L 26.609375 -0.5625 L 26.609375 0 L 22.046875 0 C 20.734375 0 19.65625 -0.296875 18.8125 -0.890625 C 17.976562 -1.484375 17.359375 -2.265625 16.953125 -3.234375 L 15.015625 -7.796875 L 5.9375 -7.796875 L 3.421875 -1.703125 L 6.265625 -0.5625 L 6.265625 0 L -0.765625 0 Z M 6.3125 -8.75 L 14.640625 -8.75 L 10.453125 -18.734375 Z M 6.3125 -8.75 "/></g></g></g><g fill="#2d1902" fill-opacity="1"><g transform="translate(286.767903, 200.249987)"><g><path d="M 5.328125 -20.140625 L 5.328125 -1.703125 L 8.359375 -0.5625 L 8.359375 0 L 1.140625 0 L 1.140625 -0.5625 L 4.1875 -1.703125 L 4.1875 -25.28125 L 1.515625 -26.046875 L 1.515625 -26.609375 L 5.515625 -26.609375 C 6.859375 -26.609375 7.910156 -26.367188 8.671875 -25.890625 C 9.429688 -25.410156 10.148438 -24.765625 10.828125 -23.953125 L 23 -9.6875 L 23 -24.90625 L 19.953125 -26.046875 L 19.953125 -26.609375 L 27.1875 -26.609375 L 27.1875 -26.046875 L 24.140625 -24.90625 L 24.140625 0.5625 L 23 0.5625 Z M 5.328125 -20.140625 "/></g></g></g><g fill="#ffbd59" fill-opacity="1"><g transform="translate(145.966387, 239.249984)"><g><path d="M 1.90625 -0.5625 L 4.1875 -1.140625 L 4.1875 -25.46875 L 1.90625 -26.046875 L 1.90625 -26.609375 L 12.171875 -26.609375 C 16.015625 -26.609375 18.84375 -25.992188 20.65625 -24.765625 C 22.46875 -23.535156 23.375 -21.929688 23.375 -19.953125 C 23.375 -18.585938 22.976562 -17.484375 22.1875 -16.640625 C 21.40625 -15.804688 20.410156 -15.1875 19.203125 -14.78125 C 17.910156 -14.332031 16.515625 -14.09375 15.015625 -14.0625 L 15.015625 -13.875 C 16.867188 -13.800781 18.476562 -13.523438 19.84375 -13.046875 C 21.238281 -12.585938 22.394531 -11.875 23.3125 -10.90625 C 24.238281 -9.945312 24.703125 -8.71875 24.703125 -7.21875 C 24.703125 -4.96875 23.773438 -3.203125 21.921875 -1.921875 C 20.078125 -0.640625 17.078125 0 12.921875 0 L 1.90625 0 Z M 12.171875 -14.453125 C 13.003906 -14.453125 13.78125 -14.6875 14.5 -15.15625 C 15.226562 -15.625 15.8125 -16.28125 16.25 -17.125 C 16.695312 -17.976562 16.921875 -18.921875 16.921875 -19.953125 C 16.921875 -21.066406 16.695312 -22.054688 16.25 -22.921875 C 15.8125 -23.785156 15.226562 -24.457031 14.5 -24.9375 C 13.78125 -25.414062 13.003906 -25.65625 12.171875 -25.65625 L 10.453125 -25.65625 L 10.453125 -14.453125 Z M 12.921875 -0.953125 C 14.492188 -0.953125 15.773438 -1.507812 16.765625 -2.625 C 17.753906 -3.738281 18.25 -5.269531 18.25 -7.21875 C 18.25 -9.175781 17.753906 -10.710938 16.765625 -11.828125 C 15.773438 -12.941406 14.492188 -13.5 12.921875 -13.5 L 10.453125 -13.5 L 10.453125 -0.953125 Z M 12.921875 -0.953125 "/></g></g></g><g fill="#2d1902" fill-opacity="1"><g transform="translate(171.806229, 239.249984)"><g><path d="M -0.765625 -0.5625 L 2.28125 -1.703125 L 12.734375 -26.984375 L 13.875 -26.984375 L 24.703125 -1.140625 L 26.609375 -0.5625 L 26.609375 0 L 22.046875 0 C 20.734375 0 19.65625 -0.296875 18.8125 -0.890625 C 17.976562 -1.484375 17.359375 -2.265625 16.953125 -3.234375 L 15.015625 -7.796875 L 5.9375 -7.796875 L 3.421875 -1.703125 L 6.265625 -0.5625 L 6.265625 0 L -0.765625 0 Z M 6.3125 -8.75 L 14.640625 -8.75 L 10.453125 -18.734375 Z M 6.3125 -8.75 "/></g></g></g><g fill="#2d1902" fill-opacity="1"><g transform="translate(197.648852, 239.249984)"><g><path d="M 11.21875 0.5625 C 9.414062 0.5625 7.726562 0.160156 6.15625 -0.640625 C 5.445312 -0.992188 4.851562 -1.414062 4.375 -1.90625 C 4.019531 -1.320312 3.578125 -0.800781 3.046875 -0.34375 C 2.585938 -0.0078125 2.332031 0.164062 2.28125 0.1875 L 1.328125 0.1875 L 1.328125 -7.03125 L 2.84375 -7.03125 C 3.226562 -5.789062 3.765625 -4.675781 4.453125 -3.6875 C 5.992188 -1.476562 7.992188 -0.375 10.453125 -0.375 C 11.898438 -0.375 13.050781 -0.804688 13.90625 -1.671875 C 14.769531 -2.535156 15.203125 -3.6875 15.203125 -5.125 C 15.203125 -5.96875 14.953125 -6.71875 14.453125 -7.375 C 13.960938 -8.03125 13.347656 -8.613281 12.609375 -9.125 C 11.878906 -9.632812 10.859375 -10.269531 9.546875 -11.03125 C 7.867188 -11.96875 6.507812 -12.816406 5.46875 -13.578125 C 4.4375 -14.335938 3.550781 -15.289062 2.8125 -16.4375 C 2.070312 -17.59375 1.703125 -18.957031 1.703125 -20.53125 C 1.703125 -21.769531 2.050781 -22.890625 2.75 -23.890625 C 3.445312 -24.890625 4.492188 -25.6875 5.890625 -26.28125 C 7.285156 -26.882812 9 -27.1875 11.03125 -27.1875 C 12.5 -27.1875 13.96875 -26.765625 15.4375 -25.921875 C 15.988281 -25.617188 16.546875 -25.210938 17.109375 -24.703125 C 17.535156 -25.367188 17.976562 -25.890625 18.4375 -26.265625 C 18.894531 -26.597656 19.148438 -26.773438 19.203125 -26.796875 L 20.140625 -26.796875 L 20.140625 -19.578125 L 18.625 -19.578125 C 18.300781 -20.796875 17.804688 -21.898438 17.140625 -22.890625 C 16.535156 -23.847656 15.78125 -24.644531 14.875 -25.28125 C 13.976562 -25.914062 12.945312 -26.234375 11.78125 -26.234375 C 10.789062 -26.234375 9.941406 -25.835938 9.234375 -25.046875 C 8.523438 -24.265625 8.171875 -23.265625 8.171875 -22.046875 C 8.171875 -21.109375 8.441406 -20.265625 8.984375 -19.515625 C 9.535156 -18.773438 10.207031 -18.125 11 -17.5625 C 11.800781 -17.007812 12.882812 -16.335938 14.25 -15.546875 C 15.851562 -14.640625 17.144531 -13.828125 18.125 -13.109375 C 19.113281 -12.398438 19.953125 -11.519531 20.640625 -10.46875 C 21.328125 -9.414062 21.671875 -8.207031 21.671875 -6.84375 C 21.671875 -5.476562 21.273438 -4.226562 20.484375 -3.09375 C 19.703125 -1.96875 18.523438 -1.078125 16.953125 -0.421875 C 15.378906 0.234375 13.46875 0.5625 11.21875 0.5625 Z M 11.21875 0.5625 "/></g></g></g><g fill="#2d1902" fill-opacity="1"><g transform="translate(220.261151, 239.249984)"><g><path d="M 1.90625 -0.5625 L 4.1875 -1.140625 L 4.1875 -25.46875 L 1.90625 -26.046875 L 1.90625 -26.609375 L 12.734375 -26.609375 L 12.734375 -26.046875 L 10.453125 -25.46875 L 10.453125 -13.53125 L 19.765625 -24.90625 L 16.921875 -26.046875 L 16.921875 -26.609375 L 24.140625 -26.609375 L 24.140625 -26.046875 L 21.09375 -24.90625 L 14.453125 -16.734375 L 24.703125 -1.140625 L 26.609375 -0.5625 L 26.609375 0 L 21.28125 0 C 20.144531 0 19.175781 -0.28125 18.375 -0.84375 C 17.582031 -1.414062 16.84375 -2.210938 16.15625 -3.234375 L 10.453125 -11.96875 L 10.453125 -1.140625 L 12.734375 -0.5625 L 12.734375 0 L 1.90625 0 Z M 1.90625 -0.5625 "/></g></g></g><g fill="#2d1902" fill-opacity="1"><g transform="translate(246.48381, 239.249984)"><g><path d="M 1.90625 -0.5625 L 4.1875 -1.140625 L 4.1875 -25.46875 L 1.90625 -26.046875 L 1.90625 -26.609375 L 22.234375 -26.609375 L 22.234375 -19.765625 L 21.09375 -19.765625 C 20.613281 -20.148438 20.195312 -20.632812 19.84375 -21.21875 C 19.03125 -22.582031 18.625 -24.0625 18.625 -25.65625 L 10.453125 -25.65625 L 10.453125 -13.6875 L 14.828125 -13.6875 C 15.003906 -14.644531 15.332031 -15.546875 15.8125 -16.390625 C 16.019531 -16.765625 16.257812 -17.128906 16.53125 -17.484375 L 17.671875 -17.484375 L 17.671875 -8.9375 L 16.53125 -8.9375 C 16.257812 -9.289062 16.019531 -9.65625 15.8125 -10.03125 C 15.332031 -10.875 15.003906 -11.773438 14.828125 -12.734375 L 10.453125 -12.734375 L 10.453125 -0.953125 L 19.390625 -0.953125 C 19.390625 -2.546875 19.796875 -4.023438 20.609375 -5.390625 C 20.960938 -5.972656 21.378906 -6.457031 21.859375 -6.84375 L 23 -6.84375 L 23 0 L 1.90625 0 Z M 1.90625 -0.5625 "/></g></g></g><g fill="#2d1902" fill-opacity="1"><g transform="translate(270.996297, 239.249984)"><g><path d="M 6.65625 -0.5625 L 8.9375 -1.140625 L 8.9375 -25.65625 L 4.5625 -25.65625 C 4.5625 -24.113281 4.144531 -22.632812 3.3125 -21.21875 C 2.957031 -20.632812 2.550781 -20.148438 2.09375 -19.765625 L 0.953125 -19.765625 L 0.953125 -26.609375 L 23.1875 -26.609375 L 23.1875 -19.765625 L 22.046875 -19.765625 C 21.566406 -20.148438 21.148438 -20.632812 20.796875 -21.21875 C 19.984375 -22.582031 19.578125 -24.0625 19.578125 -25.65625 L 15.203125 -25.65625 L 15.203125 -1.140625 L 17.484375 -0.5625 L 17.484375 0 L 6.65625 0 Z M 6.65625 -0.5625 "/></g></g></g><path fill="#ffbd59" d="M 81.035156 185.234375 L 81.039062 185.238281 C 81.039062 185.234375 81.035156 185.234375 81.035156 185.234375 Z M 80.269531 184.664062 C 80.207031 184.632812 80.148438 184.601562 80.089844 184.574219 C 80.148438 184.601562 80.210938 184.632812 80.269531 184.664062 Z M 99.199219 213.179688 L 78.71875 192.699219 L 59.5625 211.855469 C 58.140625 213.273438 55.839844 213.273438 54.421875 211.855469 C 53 210.433594 53 208.132812 54.421875 206.714844 L 74.753906 186.378906 L 73.335938 184.957031 L 71.757812 186.53125 C 70.554688 187.738281 68.597656 187.738281 67.394531 186.53125 L 52.488281 171.628906 C 51.878906 171.019531 51.878906 170.03125 52.488281 169.421875 C 53.097656 168.8125 54.085938 168.8125 54.695312 169.421875 L 63.902344 178.625 L 65.738281 176.785156 L 56.535156 167.582031 C 55.925781 166.972656 55.925781 165.984375 56.535156 165.375 C 57.144531 164.765625 58.132812 164.765625 58.742188 165.375 L 67.945312 174.582031 L 69.785156 172.742188 L 60.578125 163.535156 C 59.96875 162.925781 59.96875 161.9375 60.578125 161.328125 C 61.1875 160.71875 62.175781 160.71875 62.785156 161.328125 L 77.691406 176.234375 C 78.898438 177.441406 78.898438 179.394531 77.691406 180.597656 L 76.117188 182.171875 L 78.144531 184.203125 C 78.507812 184.171875 78.875 184.183594 79.230469 184.257812 L 82.644531 180.847656 L 85.425781 183.632812 L 82.660156 186.398438 C 82.726562 186.457031 82.796875 186.5 82.859375 186.5625 L 104.339844 208.039062 C 105.757812 209.460938 105.757812 211.761719 104.339844 213.179688 C 102.917969 214.601562 100.617188 214.601562 99.199219 213.179688 " fill-opacity="1" fill-rule="nonzero"/><path fill="#ffbd59" d="M 83.738281 169.386719 C 87.207031 165.921875 99.351562 159.664062 102.980469 163.296875 C 106.613281 166.925781 100.355469 179.070312 96.890625 182.539062 C 93.421875 186.003906 87.667969 185.871094 84.035156 182.242188 C 80.402344 178.609375 80.269531 172.855469 83.738281 169.386719 " fill-opacity="1" fill-rule="nonzero"/><path fill="#ffbd59" d="M 113.289062 190.546875 C 114.296875 190.546875 115.121094 189.722656 115.121094 188.710938 C 115.121094 187.703125 114.296875 186.882812 113.289062 186.882812 C 112.277344 186.882812 111.457031 187.703125 111.457031 188.710938 C 111.457031 189.722656 112.277344 190.546875 113.289062 190.546875 Z M 109.398438 188.710938 C 109.398438 186.570312 111.144531 184.824219 113.289062 184.824219 C 115.433594 184.824219 117.175781 186.570312 117.175781 188.710938 C 117.175781 190.859375 115.433594 192.605469 113.289062 192.605469 C 111.144531 192.605469 109.398438 190.859375 109.398438 188.710938 " fill-opacity="1" fill-rule="nonzero"/><path fill="#ffbd59" d="M 44.4375 186.882812 C 43.429688 186.882812 42.605469 187.703125 42.605469 188.710938 C 42.605469 189.722656 43.429688 190.546875 44.4375 190.546875 C 45.449219 190.546875 46.269531 189.722656 46.269531 188.710938 C 46.269531 187.703125 45.449219 186.882812 44.4375 186.882812 Z M 48.328125 188.710938 C 48.328125 190.859375 46.582031 192.605469 44.4375 192.605469 C 42.292969 192.605469 40.550781 190.859375 40.550781 188.710938 C 40.550781 186.570312 42.292969 184.824219 44.4375 184.824219 C 46.582031 184.824219 48.328125 186.570312 48.328125 188.710938 " fill-opacity="1" fill-rule="nonzero"/><path fill="#ffbd59" d="M 112.164062 182.351562 C 112.101562 182.363281 112.035156 182.371094 111.972656 182.371094 C 111.488281 182.371094 111.058594 182.023438 110.96875 181.527344 C 110.335938 178.144531 109.183594 174.902344 107.539062 171.882812 C 107.265625 171.386719 107.449219 170.761719 107.949219 170.488281 C 108.449219 170.21875 109.074219 170.398438 109.34375 170.898438 C 111.09375 174.109375 112.320312 177.558594 112.988281 181.152344 C 113.089844 181.710938 112.722656 182.25 112.164062 182.351562 " fill-opacity="1" fill-rule="nonzero"/><path fill="#ffbd59" d="M 92.933594 157.878906 C 92.789062 157.878906 92.640625 157.847656 92.5 157.785156 C 83.910156 153.796875 73.769531 153.765625 65.152344 157.683594 C 64.632812 157.921875 64.023438 157.695312 63.789062 157.175781 C 63.554688 156.65625 63.785156 156.046875 64.300781 155.8125 C 73.460938 151.644531 84.234375 151.683594 93.363281 155.917969 C 93.882812 156.15625 94.105469 156.769531 93.867188 157.28125 C 93.691406 157.660156 93.320312 157.878906 92.933594 157.878906 " fill-opacity="1" fill-rule="nonzero"/><path fill="#ffbd59" d="M 46.46875 181.527344 C 46.378906 182.023438 45.945312 182.371094 45.460938 182.371094 C 45.398438 182.371094 45.335938 182.363281 45.273438 182.351562 C 44.710938 182.25 44.34375 181.710938 44.449219 181.152344 C 44.960938 178.398438 45.808594 175.707031 46.972656 173.144531 C 47.207031 172.628906 47.8125 172.40625 48.332031 172.636719 C 48.847656 172.871094 49.078125 173.480469 48.84375 173.996094 C 47.75 176.40625 46.949219 178.9375 46.46875 181.527344 " fill-opacity="1" fill-rule="nonzero"/><path fill="#ffbd59" d="M 50.582031 207.371094 C 50.25 207.371094 49.921875 207.214844 49.726562 206.917969 C 47.605469 203.75 46.035156 200.285156 45.050781 196.617188 C 44.902344 196.066406 45.226562 195.503906 45.777344 195.355469 C 46.328125 195.226562 46.886719 195.535156 47.039062 196.082031 C 47.960938 199.53125 49.441406 202.792969 51.433594 205.773438 C 51.753906 206.246094 51.625 206.882812 51.152344 207.199219 C 50.976562 207.316406 50.777344 207.371094 50.582031 207.371094 " fill-opacity="1" fill-rule="nonzero"/><path fill="#ffbd59" d="M 60.941406 215.128906 C 66.234375 218.550781 72.382812 220.359375 78.71875 220.359375 C 85.289062 220.359375 91.628906 218.421875 97.054688 214.761719 C 97.523438 214.441406 98.160156 214.566406 98.484375 215.035156 C 98.800781 215.507812 98.679688 216.144531 98.207031 216.460938 C 92.441406 220.359375 85.699219 222.414062 78.71875 222.414062 C 71.988281 222.414062 65.453125 220.492188 59.824219 216.855469 C 59.347656 216.546875 59.210938 215.910156 59.519531 215.433594 C 59.828125 214.957031 60.464844 214.820312 60.941406 215.128906 " fill-opacity="1" fill-rule="nonzero"/><path fill="#ffbd59" d="M 106.902344 207.304688 C 106.703125 207.304688 106.507812 207.25 106.332031 207.132812 C 105.859375 206.820312 105.730469 206.179688 106.042969 205.707031 C 108.027344 202.730469 109.496094 199.472656 110.414062 196.03125 C 110.558594 195.484375 111.113281 195.160156 111.671875 195.300781 C 112.21875 195.449219 112.546875 196.011719 112.402344 196.5625 C 111.421875 200.222656 109.863281 203.683594 107.757812 206.847656 C 107.558594 207.144531 107.234375 207.304688 106.902344 207.304688 " fill-opacity="1" fill-rule="nonzero"/><path fill="#ffbd59" d="M 140.929688 196.183594 L 124.742188 196.183594 C 124.324219 198.414062 123.75 200.585938 123.027344 202.695312 L 140.929688 202.695312 Z M 127.371094 183.050781 C 127.527344 184.605469 127.605469 186.101562 127.605469 187.558594 C 127.605469 189.015625 127.527344 190.511719 127.371094 192.070312 L 141.074219 192.070312 L 141.074219 183.050781 Z M 124.742188 178.933594 L 140.929688 178.933594 L 140.929688 172.421875 L 123.027344 172.421875 C 123.75 174.53125 124.324219 176.703125 124.742188 178.933594 Z M 120.554688 203.488281 C 120.566406 203.445312 120.554688 203.402344 120.570312 203.355469 C 121.59375 200.660156 122.347656 197.839844 122.828125 194.984375 C 122.84375 194.90625 122.875 194.835938 122.90625 194.761719 C 123.289062 192.414062 123.496094 190.011719 123.496094 187.558594 C 123.496094 185.105469 123.289062 182.699219 122.90625 180.355469 C 122.875 180.28125 122.84375 180.214844 122.828125 180.132812 C 122.347656 177.273438 121.59375 174.457031 120.570312 171.757812 C 120.554688 171.714844 120.566406 171.671875 120.554688 171.628906 C 114.121094 154.78125 97.796875 142.78125 78.71875 142.78125 C 54.027344 142.78125 33.941406 162.871094 33.941406 187.558594 C 33.941406 212.25 54.027344 232.335938 78.71875 232.335938 C 97.796875 232.335938 114.121094 220.335938 120.554688 203.488281 Z M 78.71875 138.667969 C 98.183594 138.667969 115.960938 150.496094 123.613281 168.3125 L 141.074219 168.308594 L 141.074219 144.328125 C 141.074219 143.191406 141.996094 142.273438 143.132812 142.273438 C 144.269531 142.273438 145.1875 143.191406 145.1875 144.328125 L 145.1875 230.789062 C 145.1875 231.925781 144.269531 232.84375 143.132812 232.84375 C 141.996094 232.84375 141.074219 231.925781 141.074219 230.789062 L 141.074219 206.804688 L 123.613281 206.804688 C 115.960938 224.621094 98.183594 236.445312 78.71875 236.445312 C 51.757812 236.445312 29.828125 214.515625 29.828125 187.558594 C 29.828125 160.601562 51.757812 138.667969 78.71875 138.667969 " fill-opacity="1" fill-rule="nonzero"/></svg>